<?xml version="1.0" encoding="UTF-8" standalone="no"?>
<svg
   width="443"
   height="443"
   version="1.1"
   id="svg3"
   sodipodi:docname="empty_bowl.svg"
   inkscape:version="1.4 (86a8ad7, 2024-10-11)"
   xmlns:inkscape="http://www.inkscape.org/namespaces/inkscape"
   xmlns:sodipodi="http://sodipodi.sourceforge.net/DTD/sodipodi-0.dtd"
   xmlns="http://www.w3.org/2000/svg"
   xmlns:svg="http://www.w3.org/2000/svg">
  <defs
     id="defs3" />
  <sodipodi:namedview
     id="namedview3"
     pagecolor="#ffffff"
     bordercolor="#000000"
     borderopacity="0.25"
     inkscape:showpageshadow="2"
     inkscape:pageopacity="0.0"
     inkscape:pagecheckerboard="0"
     inkscape:deskcolor="#d1d1d1"
     inkscape:zoom="1.7674944"
     inkscape:cx="221.78289"
     inkscape:cy="221.5"
     inkscape:window-width="1920"
     inkscape:window-height="1001"
     inkscape:window-x="-9"
     inkscape:window-y="-9"
     inkscape:window-maximized="1"
     inkscape:current-layer="svg3" />
  <path
     style="fill:#ffffff;stroke:none;fill-opacity:0"
     d="M0 0L0 314C2.43223 309.459 3.01759 303.946 4.42747 299L12.4213 271C20.6883 242.004 28.9189 213.007 37.1404 184C42.4021 165.436 45.2983 143.629 60 130.093C78.8304 112.756 108.566 106.997 133 102.92C191.217 93.2056 251.806 93.0232 310 102.921C335.582 107.271 367.864 114.817 385.816 135.004C398.123 148.843 400.534 171.712 405.72 189C413.901 216.275 421.844 243.631 429.709 271C433.806 285.258 438.992 299.468 442 314C445.206 306.361 443 294.271 443 286L443 222L443 0L0 0z"
     id="path1" />
  <path
     id="path2"
     style="fill:#010101; stroke:none;"
     d="M 210.9668 95.666016 C 205.2478 95.590253 199.54 95.696378 194 96.423828 C 185.417 97.550728 176.636 97.334222 168 98.169922 C 144.146 100.47812 119.952 103.84356 97 110.97656 C 81.04 115.93656 64.221978 122.739 53.330078 136 C 45.443178 145.602 43.3801 161.272 40 173 C 32.4187 199.306 25.084025 225.674 17.578125 252 C 13.875025 264.988 10.363352 278.038 6.5761719 291 C 0.52190388 311.721 -5.4617106 333.39905 9.2871094 351.99805 C 27.461139 374.91705 59.8574 384.79939 87 392.15039 C 153.82 410.24739 225.505 413.72575 294 404.71875 C 327.072 400.37075 360.275 393.04461 391 379.84961 C 407.475 372.77361 424.41303 362.927 434.95703 348 C 448.06703 329.44 441.48438 310.763 435.85938 291 C 425.40037 254.258 414.25898 217.714 403.70898 181 C 398.93398 164.382 396.28438 143.36283 382.98438 131.17383 C 367.17737 116.68583 343.616 109.55639 323 105.40039 C 291.525 99.055191 260.083 96 228 96 C 222.416 96 216.6858 95.741778 210.9668 95.666016 z M 217.50586 120.8457 C 226.01433 120.72931 234.525 121.77662 243 121.98438 C 272.84 122.71637 303.141 125.34212 332 133.57812 C 342.073 136.45213 352.152 139.96822 361 145.69922 C 364.173 147.75422 368.39006 150.35891 369.91406 154.00391 C 372.68906 160.64091 361.511 165.94914 357 168.24414 C 340.113 176.83414 321.66 180.98052 303 183.72852 C 244.716 192.31452 181.922 192.583 124 181 C 109.87 178.174 96.1334 174.10072 83 168.13672 C 78.5617 166.12072 71.05305 162.58105 70.53125 156.99805 C 70.13765 152.78705 73.961625 149.26797 77.015625 147.04297 C 84.129125 141.86197 92.6549 138.62139 101 136.02539 C 124.435 128.73539 149.543 124.76584 174 123.08984 C 185.573 122.29584 197.515 122.93183 209 121.42383 C 211.8345 121.05183 214.6697 120.8845 217.50586 120.8457 z M 246.7168 239.63086 C 253.99205 239.62319 257.47658 246.65372 258.68945 253 C 260.91945 264.664 257.147 285.3267 242 286.3457 C 234.12 286.8767 228.98853 278.775 227.51953 272 C 224.81153 259.519 231.115 240.58134 246 239.65234 C 246.24263 239.63719 246.48211 239.63111 246.7168 239.63086 z M 196.83203 240.01367 C 211.11081 239.80656 216.07716 261.47564 213.9043 273 C 212.8693 278.483 210.01205 285.23673 203.99805 286.67773 C 197.96705 288.12273 192.05355 284.16494 188.18555 279.96094 C 178.94355 269.91694 176.114 244.96759 193 240.55859 C 194.34516 240.20734 195.62197 240.03122 196.83203 240.01367 z M 165.16406 273.85742 C 178.37863 274.05227 184.99423 292.39694 183.07227 304 C 182.15727 309.52 179.60205 315.11481 173.99805 317.25781 C 168.27905 319.44481 162.31791 316.27287 158.00391 312.67188 C 146.95691 303.45287 142.131 280.24934 160 274.65234 C 161.81825 274.08272 163.54122 273.83349 165.16406 273.85742 z M 280.81641 275.59375 C 289.12005 275.63809 293.59022 283.13278 292.54688 291 C 291.14088 301.608 283.31 316.32272 271 316.51172 C 262.129 316.64772 257.60755 306.656 258.18555 299 C 259.03655 287.728 268.102 276.23228 280 275.61328 C 280.27578 275.59897 280.54855 275.59232 280.81641 275.59375 z M 222.56641 298.04883 C 240.3503 298.54958 256.42219 316.181 263.72656 331 C 269.20456 342.114 267.342 357.21988 253 359.67188 C 243.566 361.28387 234.285 355.75584 225 355.08984 C 211.311 354.10884 193.42962 365.20008 181.01562 355.58008 C 172.30163 348.82608 172.66169 337.78 177.92969 329 C 185.81969 315.849 201.491 301.26084 217 298.46484 C 218.86853 298.12791 220.72669 297.99703 222.56641 298.04883 z " />
</svg>
