<?xml version="1.0" encoding="UTF-8" standalone="no"?>
<svg
   width="443"
   height="443"
   version="1.1"
   id="svg3"
   sodipodi:docname="full_bowl.svg"
   inkscape:version="1.4 (86a8ad7, 2024-10-11)"
   xmlns:inkscape="http://www.inkscape.org/namespaces/inkscape"
   xmlns:sodipodi="http://sodipodi.sourceforge.net/DTD/sodipodi-0.dtd"
   xmlns="http://www.w3.org/2000/svg"
   xmlns:svg="http://www.w3.org/2000/svg">
  <defs
     id="defs3" />
  <sodipodi:namedview
     id="namedview3"
     pagecolor="#ffffff"
     bordercolor="#000000"
     borderopacity="0.25"
     inkscape:showpageshadow="2"
     inkscape:pageopacity="0.0"
     inkscape:pagecheckerboard="0"
     inkscape:deskcolor="#d1d1d1"
     inkscape:zoom="1.7674944"
     inkscape:cx="221.78289"
     inkscape:cy="221.5"
     inkscape:window-width="1920"
     inkscape:window-height="1001"
     inkscape:window-x="-9"
     inkscape:window-y="-9"
     inkscape:window-maximized="1"
     inkscape:current-layer="svg3" />
  <path
     id="path2"
     style="fill:#010101; stroke:none;"
     d="M 224.35938 33 C 211.66809 32.502995 198.73069 35.769344 187 43.066406 C 180.014 47.411806 173.60358 53.5448 168.51758 60 C 165.79458 63.4561 163.51809 69.714694 159.62109 71.933594 C 157.14109 73.345494 153.678 72.155162 151 72.039062 C 145.345 71.793963 139.502 71.71385 134 73.15625 C 120.385 76.72545 108.53884 85.8092 101.46484 98 C 98.931944 102.364 98.346838 107.65458 95.835938 111.89258 C 93.747038 115.41758 89.4815 116.57081 86 118.25781 C 78.0897 122.09181 66.387072 127.781 66.138672 138 C 65.940272 146.165 74.7224 151.30741 81 154.69141 C 97.5799 163.62741 117.535 167.71217 136 170.57617 C 168.85 175.67017 201.926 176.82563 235 176.01562 C 262.611 175.33863 289.751 174.45327 317 169.19727 C 331.717 166.35827 346.508 162.99023 360 156.24023 C 365.672 153.40223 372.55597 149.90109 375.54297 143.99609 C 381.75597 131.71309 365.992 122.64677 357 118.25977 C 354.169 116.87877 350.67259 115.89703 348.43359 113.58203 C 343.86559 108.85803 343.53055 99.6655 339.56055 94 C 327.49955 76.7874 303.497 65.2943 283 74 C 280.631 65.9506 274.82409 58.8721 268.99609 53 C 256.58678 40.496637 240.67674 33.639006 224.35938 33 z M 46 156 C 44.0791 169.056 39.042075 182.299 35.421875 195 C 29.541075 215.631 24.281806 236.58209 17.691406 256.99609 C 14.662306 266.37909 11.019796 275.397 8.2910156 285 C 2.9171456 303.913 -5.912655 326.179 4.515625 345 C 11.180465 357.029 22.3126 365.16761 34 371.84961 C 55.4476 384.11061 80.0047 391.12483 104 396.42383 C 183.448 413.97183 268.951 414.69614 348 394.36914 C 378.672 386.48314 417.01562 374.632 435.64062 347 C 448.77263 327.519 440.55198 307.329 434.70898 287 C 422.14498 243.286 408.438 199.828 396 156 C 390.41 161.168 385.477 166.75616 379 170.91016 C 356.258 185.49516 327.316 190.47086 301 194.13086 C 258.851 199.99386 216.352 200.00584 174 197.08984 C 146.309 195.18284 117.457 191.92409 91 182.99609 C 80.3872 179.41509 70.077 174.88919 61 168.24219 C 55.8503 164.47119 51.6868 158.767 46 156 z M 246.7168 239.63086 C 253.99205 239.62319 257.47658 246.65372 258.68945 253 C 260.91945 264.664 257.147 285.3267 242 286.3457 C 234.12 286.8767 228.98853 278.775 227.51953 272 C 224.81153 259.519 231.115 240.58134 246 239.65234 C 246.24263 239.63719 246.48211 239.63111 246.7168 239.63086 z M 196.83203 240.01367 C 211.11081 239.80656 216.07716 261.47564 213.9043 273 C 212.8693 278.483 210.01205 285.23673 203.99805 286.67773 C 197.96705 288.12273 192.05355 284.16494 188.18555 279.96094 C 178.94355 269.91694 176.114 244.96759 193 240.55859 C 194.34516 240.20734 195.62197 240.03122 196.83203 240.01367 z M 165.16406 273.85742 C 178.37863 274.05227 184.99423 292.39694 183.07227 304 C 182.15727 309.52 179.60205 315.11481 173.99805 317.25781 C 168.27905 319.44481 162.31791 316.27287 158.00391 312.67188 C 146.95691 303.45287 142.131 280.24934 160 274.65234 C 161.81825 274.08272 163.54122 273.83349 165.16406 273.85742 z M 280.81641 275.59375 C 289.12005 275.63809 293.59022 283.13278 292.54688 291 C 291.14088 301.608 283.31 316.32272 271 316.51172 C 262.129 316.64772 257.60755 306.656 258.18555 299 C 259.03655 287.728 268.102 276.23228 280 275.61328 C 280.27578 275.59897 280.54855 275.59232 280.81641 275.59375 z M 222.56641 298.04883 C 240.3503 298.54958 256.42219 316.181 263.72656 331 C 269.20456 342.114 267.342 357.21988 253 359.67188 C 243.566 361.28387 234.285 355.75584 225 355.08984 C 211.311 354.10884 193.42962 365.20008 181.01562 355.58008 C 172.30163 348.82608 172.66169 337.78 177.92969 329 C 185.81969 315.849 201.491 301.26084 217 298.46484 C 218.86853 298.12791 220.72669 297.99703 222.56641 298.04883 z " />
</svg>
