<?xml version="1.0" encoding="UTF-8" standalone="no"?>
<svg
   width="900"
   height="1024"
   version="1.1"
   id="svg3"
   sodipodi:docname="icon_bold.svg"
   inkscape:version="1.4 (86a8ad7, 2024-10-11)"
   xmlns:inkscape="http://www.inkscape.org/namespaces/inkscape"
   xmlns:sodipodi="http://sodipodi.sourceforge.net/DTD/sodipodi-0.dtd"
   xmlns="http://www.w3.org/2000/svg"
   xmlns:svg="http://www.w3.org/2000/svg">
  <defs
     id="defs3" />
  <sodipodi:namedview
     id="namedview3"
     pagecolor="#ffffff"
     bordercolor="#000000"
     borderopacity="0.25"
     inkscape:showpageshadow="2"
     inkscape:pageopacity="0.0"
     inkscape:pagecheckerboard="0"
     inkscape:deskcolor="#d1d1d1"
     inkscape:zoom="0.76464844"
     inkscape:cx="511.3461"
     inkscape:cy="512"
     inkscape:window-width="1920"
     inkscape:window-height="1001"
     inkscape:window-x="-9"
     inkscape:window-y="-9"
     inkscape:window-maximized="1"
     inkscape:current-layer="svg3" />
  <path
     style="fill:#000000;fill-opacity:0;stroke:none"
     d="M 0,0 V 1024 H 1024 V 0 Z"
     id="path1" />
  <path
     id="path2"
     style="fill:#ffffff;fill-opacity:1;stroke:none;stroke-width:1.08624"
     d="m 344.37256,56.621407 c -2.24519,0.04875 -4.51688,0.218822 -6.8123,0.519775 -36.49643,4.785953 -60.27373,31.767746 -73.11087,64.643748 -19.57071,50.11674 -11.18677,112.33414 17.13791,157.50416 17.64807,28.14545 48.25852,56.51404 84.21509,52.256 36.14557,-4.28195 59.55389,-31.94221 72.19223,-64.20884 C 458.01504,216.22344 450.36803,156.6368 422.23996,109.83634 405.8894,82.631227 378.05063,55.890099 344.37256,56.621407 Z m 251.71178,2.934107 c -30.40048,0.379097 -56.09436,20.283346 -73.18301,43.763416 -30.8567,42.39469 -43.93408,103.51499 -29.31987,154.24545 7.39944,25.68621 21.29264,53.38519 46.01862,66.44283 11.63033,6.14157 24.96387,8.66286 38.01824,8.50318 28.19868,-0.34434 55.34742,-23.68003 70.45044,-45.61765 25.17243,-36.5616 35.63139,-77.4682 33.14717,-121.65627 -0.76471,-13.60076 -2.94138,-27.36873 -8.01735,-40.19283 C 659.7966,91.178069 636.31958,59.052587 596.08434,59.555514 Z M 151.26874,208.38675 c -3.42362,-0.0143 -6.86818,0.23574 -10.31712,0.77437 -41.96345,6.55435 -65.15893,47.56252 -65.17414,87.50774 -0.005,13.7159 0.70907,26.75398 3.72121,40.19072 11.81824,52.7237 59.20985,116.64601 120.10965,107.05997 38.70257,-6.0916 58.27982,-43.18063 62.09576,-78.81784 4.9641,-46.3714 -14.12326,-94.4678 -46.88847,-127.08745 -16.61871,-16.54459 -39.5816,-29.52752 -63.54689,-29.62751 z M 789.988,211.9149 c -3.08735,-0.0824 -6.17826,0.0534 -9.24361,0.49221 -65.35012,9.36226 -107.53733,81.1247 -107.53733,142.91848 0,38.75253 18.98088,80.87216 60.82919,88.40303 6.83025,1.22962 14.84124,1.24827 21.72471,0.3543 54.59747,-7.09529 93.59092,-61.95773 103.79066,-112.65452 2.33759,-11.61947 2.66043,-22.95976 2.66043,-34.75954 0,-38.68953 -22.04188,-78.08239 -63.00166,-83.93503 -3.05124,-0.43612 -6.13503,-0.73651 -9.22239,-0.81893 z M 470.63049,349.62497 c -5.6745,-0.15383 -11.35047,0.008 -16.84303,0.72981 -19.50009,2.56243 -37.95198,5.61543 -56.48424,12.64446 -53.88489,20.43861 -96.79445,60.87867 -136.86569,100.9499 -57.94198,57.94198 -120.57215,125.47325 -120.57215,212.90219 0,13.55078 0.82904,26.86151 3.47511,40.19071 3.64106,18.34434 10.12461,35.46885 18.51904,52.13931 9.99012,19.84118 23.93298,36.8092 39.92128,52.09688 39.61719,37.87921 100.20415,62.37623 155.33169,58.60157 27.32426,-1.87159 52.5586,-10.904 79.2952,-15.73557 15.846,-2.86224 31.74197,-2.81979 47.79436,-2.62861 22.60131,0.2683 44.38794,8.15127 66.26038,12.80145 23.43662,4.98365 47.90625,6.21411 71.69155,3.17808 72.91682,-9.30686 139.74988,-61.20594 165.73155,-130.03851 13.37047,-35.42323 15.75254,-73.91073 7.60576,-110.79604 -8.59212,-38.89701 -29.40916,-74.54074 -54.0678,-105.36484 -17.16578,-21.45859 -35.7619,-41.40948 -55.18161,-60.82921 -55.59788,-55.59788 -117.13748,-111.50633 -198.78112,-119.67048 -5.48277,-0.54801 -11.15579,-1.01726 -16.83028,-1.1711 z m -88.74461,109.02241 c 5.87644,-0.77342 3.52562,9.69273 2.50767,13.99165 -2.59067,10.93187 -4.03788,21.54874 -5.82365,32.58707 -1.02323,6.32514 -1.87193,14.05917 3.04655,19.09822 3.73013,3.82138 9.85368,4.54167 14.60053,6.51317 8.52695,3.54223 17.01416,7.84674 23.33497,14.7639 8.06204,8.82132 8.12447,21.34889 16.00076,30.18759 4.22437,4.74034 9.52315,6.8191 14.97605,9.69762 8.62689,4.5535 17.82195,9.12912 26.97132,12.56596 6.03077,2.2659 14.80391,3.19962 19.07065,8.61775 3.19353,4.0571 0.6482,9.83302 -1.52752,13.69676 -5.22371,9.27645 -11.02547,18.37618 -18.23264,26.23726 -7.4657,8.14351 -17.09008,15.63322 -28.45428,17.01274 -21.78445,2.64281 -50.45394,-11.69377 -63.97758,12.14802 -1.713,3.01973 -2.99356,6.39684 -3.80606,9.77612 -4.92065,20.47119 1.89724,42.24587 6.53438,61.91543 2.49835,10.59514 3.74847,21.78771 5.07476,32.58707 1.0493,8.5465 1.37705,17.51663 0.14851,26.06965 -0.466,3.24133 -0.41228,7.58681 -3.1887,9.844 -3.26522,2.65368 -9.55162,2.68379 -13.56309,3.13567 -12.0507,1.35779 -23.78965,1.46377 -35.84578,0.11032 -38.75146,-4.35038 -73.46135,-21.22671 -101.18752,-48.63026 -10.40613,-10.28557 -22.46737,-24.13752 -26.98828,-38.32375 11.4196,-9.98142 18.72143,-25.62104 25.11283,-39.10448 13.18473,-27.81415 20.98348,-56.68629 30.38702,-85.81262 5.93628,-18.38888 13.51395,-36.64524 25.25073,-52.13931 8.15655,-10.76893 19.13552,-19.01964 26.82281,-30.20244 11.73677,-17.07454 23.03525,-32.38895 37.81458,-47.08789 6.36425,-6.32949 13.83685,-14.03441 21.8902,-18.18384 1.20313,-0.61996 2.2113,-0.96088 3.05078,-1.07138 z m 232.66446,74.82084 c 16.53142,7.22564 28.03882,24.42292 35.53603,40.19072 1.67497,3.52266 2.30029,7.39401 4.08823,10.86235 8.56931,16.62919 22.3704,29.13936 27.40835,47.79437 3.46184,12.82193 2.19988,27.01251 3.88245,40.19072 3.82138,29.94752 14.58797,58.51226 34.44979,81.46767 -27.6045,37.73257 -74.04107,65.69019 -121.65839,66.25613 -10.2432,0.12165 -20.22679,-0.35198 -30.4146,-1.17534 -3.25436,-0.26288 -9.5822,-0.25924 -11.29302,-3.63634 -1.965,-3.88112 -0.54827,-10.47936 -0.73618,-14.73632 -0.84293,-19.16771 5.66789,-36.38346 14.16985,-53.22554 5.52351,-10.94057 14.08833,-25.09857 10.18983,-38.01825 -3.87135,-12.82736 -17.04039,-11.59482 -27.53777,-14.74056 -14.52731,-4.35362 -31.42251,-20.43542 -29.15227,-37.38178 1.11013,-8.2934 14.67941,-13.61247 19.77712,-19.87897 9.39377,-11.54667 10.59272,-26.29522 22.41423,-36.26795 11.46086,-9.66967 28.85745,-10.77018 38.85624,-22.12569 11.35009,-12.88927 3.1073,-31.23039 10.02011,-45.57522 z" />
</svg>
